<svg xmlns="http://www.w3.org/2000/svg" xmlns:xlink="http://www.w3.org/1999/xlink" id="Layer_1" data-name="Layer 1" viewBox="0 0 1500.53 537.42"><defs><style>.cls-1{fill:url(#GradientFill_2);}.cls-2{fill:url(#GradientFill_1);}.cls-3{fill:url(#GradientFill_3);}.cls-4{fill:url(#GradientFill_5);}.cls-5{fill:url(#GradientFill_4);}.cls-6{fill:#fff;fill-rule:evenodd;}.cls-7{fill:#00aeef;}</style><linearGradient id="GradientFill_2" x1="1207.85" y1="360.89" x2="1332.87" y2="360.89" gradientUnits="userSpaceOnUse"><stop offset="0" stop-color="#4d2d5a"></stop><stop offset="0.47" stop-color="#ed1c24"></stop><stop offset="1" stop-color="#ed1c24"></stop></linearGradient><linearGradient id="GradientFill_1" x1="1449.06" y1="41.26" x2="1449.06" y2="295.26" gradientUnits="userSpaceOnUse"><stop offset="0" stop-color="#eaa22c"></stop><stop offset="0.2" stop-color="#fdb913"></stop><stop offset="0.73" stop-color="#fdb913"></stop><stop offset="1" stop-color="#f15a22"></stop></linearGradient><linearGradient id="GradientFill_3" x1="1217.72" y1="65.81" x2="1446.64" y2="65.81" gradientUnits="userSpaceOnUse"><stop offset="0" stop-color="#84ad40"></stop><stop offset="0.75" stop-color="#b0d23b"></stop><stop offset="1" stop-color="#6b5832"></stop></linearGradient><linearGradient id="GradientFill_5" x1="1205.9" y1="329.71" x2="1205.91" y2="62.59" gradientUnits="userSpaceOnUse"><stop offset="0" stop-color="#0084ca"></stop><stop offset="0.31" stop-color="#00a4df"></stop><stop offset="0.71" stop-color="#2dc3e9"></stop><stop offset="1" stop-color="#168275"></stop></linearGradient><linearGradient id="GradientFill_4" x1="1434.08" y1="298.96" x2="1512.82" y2="298.96" gradientUnits="userSpaceOnUse"><stop offset="0" stop-color="#ed1c24"></stop><stop offset="1" stop-color="#b7282f"></stop></linearGradient></defs><path class="cls-1" d="M1455.37,402c-63.89-10.84-91.95-108.95-165.78-108.95H1221.8v28a48.75,48.75,0,0,0,44.91,48.41c1.21,0,2.41.07,3.63.07h7.51c83.73,0,89.94,98.47,179.3,41.31a4.76,4.76,0,0,0,2.15-5.06,4.9,4.9,0,0,0-.5-1.39A4.83,4.83,0,0,0,1455.37,402Z" transform="translate(-9.05 -5.29)"></path><path class="cls-2" d="M1388.53,5.33a48.77,48.77,0,0,1,44.52,48.38v28l0,.07V293h28A48.78,48.78,0,0,0,1509.53,248c0-1.16.06-2.32.06-3.49V130.3a124.06,124.06,0,0,0-19.24-66.44A125.32,125.32,0,0,0,1388.53,5.33Z" transform="translate(-9.05 -5.29)"></path><path class="cls-3" d="M1388.24,5.34c-1.21,0-2.45,0-3.68,0H1270.37c-67.51,0-123,54.19-125,121.22a48.78,48.78,0,0,1,48.41-44.75h239.3V53.71a48.15,48.15,0,0,0-7.58-25.94A48.8,48.8,0,0,0,1388.24,5.34Z" transform="translate(-9.05 -5.29)"></path><path class="cls-4" d="M1145.36,126.71c0,1.21,0,2.42,0,3.64V244.54a125.3,125.3,0,0,0,121.19,125,48.76,48.76,0,0,1-37-22.37l-.33-.54c-.27-.43-.54-.87-.8-1.31s-.43-.78-.64-1.17-.28-.49-.41-.74c-.33-.64-.65-1.28-1-1.93l0,0a48,48,0,0,1-4.51-20.35V81.81h-28A48.78,48.78,0,0,0,1145.36,126.71Z" transform="translate(-9.05 -5.29)"></path><path class="cls-5" d="M1461.15,293.08h-82.82a4.76,4.76,0,0,0-4.48,3c-1.27,3.06,0,7.35,3.12,12.16,13.54,21,61.36,51.91,81.88,36.66a126.25,126.25,0,0,0,18.71-17.07l.06-.07.29-.33c1.72-1.92,3.37-3.9,5-5.93l.17-.21c.52-.68,1-1.36,1.56-2l.18-.24a124.32,124.32,0,0,0,24.7-70A48.78,48.78,0,0,1,1461.15,293.08Z" transform="translate(-9.05 -5.29)"></path><path class="cls-6" d="M9.05,317.08c0,33.55,13.91,49.84,58,49.84H289c11.51,0,17.26-6.22,17.26-15.82v-6.21c0-9.6-5.75-15.82-17.26-15.82H72.33c-13.42,0-19.17-7.2-19.17-17.74V59.19C53.16,48.17,46,41,34,41H28.24c-12,0-19.19,7.2-19.19,18.22Z" transform="translate(-9.05 -5.29)"></path><path class="cls-6" d="M611.16,272.21a11.59,11.59,0,0,1,1.54,5.37c0,3.45-2.31,5.76-7.29,5.76H456.23c-5,0-7.28-2.31-7.28-5.76a11.59,11.59,0,0,1,1.54-5.37L526.8,138c1.91-3.06,3.06-4.22,5.37-4.22s3.45,1.16,5.35,4.22l73.64,134.21ZM424.79,317.46c3.46-6.13,7.67-7.66,14.19-7.66H621.9c6.51,0,10.73,1.53,14.19,7.66L656,354.28c4.6,8.43,9.2,12.64,18.41,12.64h3.83c8.82,0,14.19-4.59,14.19-11.48,0-3.45-1.54-7.3-3.45-10.75L561.69,117.3c-4.6-8.46-10-11.13-19.56-11.13H522.2c-9.22,0-14.2,2.67-19.17,11.13L371.48,345.07c-2.67,4.6-3.43,7.67-3.43,10.37,0,6.89,5,11.48,13.8,11.48h3.83c8.82,0,13.81-4.21,18.41-12.64Z" transform="translate(-9.05 -5.29)"></path><path class="cls-6" d="M970.71,133.78c47.56,0,58.68,8.06,58.68,42.19,0,31.06-12.27,42.56-51.39,42.56H830c-9.19,0-13.42-4.22-13.42-11.88V146.82c0-8.82,3.46-13,14.19-13Zm-140,205.15c-10.73,0-14.19-4.6-14.19-13V257.64c0-7.67,4.23-11.89,13.42-11.89H983.75c41.8,0,54.84,9.21,54.84,46.41,0,36.81-8.82,46.77-64.43,46.77Zm148.41,28c72.48,0,94.33-17.25,94.33-73.61,0-33.37-9.19-47.17-30.29-57.14-7.68-3.45-8.82-4.62-8.82-6.9,0-1.92,1.14-3.45,9.2-8.82,14.19-9.59,20.33-23,20.33-50.24,0-49.08-21.09-64-94-64H827.68c-34.9,0-46.41,13-46.41,39.88v181c0,26.84,11.12,39.87,46.41,39.87Z" transform="translate(-9.05 -5.29)"></path><path class="cls-7" d="M78.73,542.71l-7.57-7.06a30.14,30.14,0,0,1-8.44,4.55A29.44,29.44,0,0,1,53,541.79a30.21,30.21,0,0,1-12.9-2.72,29.73,29.73,0,0,1-10-7.52,34.16,34.16,0,0,1-6.49-11.46,44.32,44.32,0,0,1-2.31-14.63v-1a44,44,0,0,1,2.36-14.68,35.39,35.39,0,0,1,6.55-11.56,29.6,29.6,0,0,1,10-7.58,30.35,30.35,0,0,1,12.9-2.71,29.67,29.67,0,0,1,22.82,10.24,34.35,34.35,0,0,1,6.5,11.46,44.58,44.58,0,0,1,2.3,14.63v1A43.38,43.38,0,0,1,83,517.63,37.35,37.35,0,0,1,78.22,528L86,534.72ZM53.25,531A16.36,16.36,0,0,0,63,528.15l-10.64-9.59,7.27-8,9.92,9.51a35,35,0,0,0,2.87-14.73v-.93A35.88,35.88,0,0,0,71,494a25.07,25.07,0,0,0-4-8.09,18.36,18.36,0,0,0-6.19-5.22,17.73,17.73,0,0,0-15.65,0,17.51,17.51,0,0,0-6.14,5.12,25,25,0,0,0-4,8.05,36.15,36.15,0,0,0-1.44,10.56v.92A36,36,0,0,0,35,516a24.87,24.87,0,0,0,4.09,8.1,18.06,18.06,0,0,0,6.24,5.13A17.75,17.75,0,0,0,53.25,531Z" transform="translate(-9.05 -5.29)"></path><path class="cls-7" d="M112.71,541.68q-8,0-12.34-5.06T96,522.75V486.42h11.57v33.06q0,5.73,2.51,8.75a8.73,8.73,0,0,0,7.11,3,9.43,9.43,0,0,0,7.42-3.18q2.81-3.17,2.81-8.8V486.42H139v54.24H127.44v-7.88a22.67,22.67,0,0,1-2.56,3.43,18,18,0,0,1-3.22,2.81,15.42,15.42,0,0,1-4,2A16.23,16.23,0,0,1,112.71,541.68Z" transform="translate(-9.05 -5.29)"></path><path class="cls-7" d="M152.41,467.19h12.28v11.35H152.41Zm.41,19.23h11.56v54.24H152.82Z" transform="translate(-9.05 -5.29)"></path><path class="cls-7" d="M199.89,541.79a23.17,23.17,0,0,1-9.77-2,22.83,22.83,0,0,1-7.64-5.68,26.74,26.74,0,0,1-5-8.7,32.72,32.72,0,0,1-1.82-11.1v-1a32.18,32.18,0,0,1,1.87-11.15,27.38,27.38,0,0,1,5.13-8.8,23.26,23.26,0,0,1,17.66-7.88,22.51,22.51,0,0,1,9.93,2,28,28,0,0,1,7.47,5.37l-6.45,8.49a23.86,23.86,0,0,0-4.71-3.84,11.68,11.68,0,0,0-6.24-1.58,11.07,11.07,0,0,0-5.27,1.28,12.34,12.34,0,0,0-4.15,3.63,18.12,18.12,0,0,0-2.71,5.58,24.1,24.1,0,0,0-1,7v.51a24.86,24.86,0,0,0,1,7.21,16.79,16.79,0,0,0,2.77,5.53,12.81,12.81,0,0,0,4.24,3.58,11.63,11.63,0,0,0,5.43,1.28,11.43,11.43,0,0,0,6.14-1.59,27.2,27.2,0,0,0,4.91-3.94l6.24,7.68a28.38,28.38,0,0,1-7.52,5.88A21.73,21.73,0,0,1,199.89,541.79Z" transform="translate(-9.05 -5.29)"></path><path class="cls-7" d="M227.31,466.78h11.57v43.49l18.52-23.85h13.71l-18,22.11,18.52,32.13h-13.4l-13.1-23.23L238.88,525v15.66H227.31Z" transform="translate(-9.05 -5.29)"></path><path class="cls-7" d="M307,469h25.89a32.51,32.51,0,0,1,11,1.74,21.59,21.59,0,0,1,8.13,5,19.4,19.4,0,0,1,4.4,6.86,24.48,24.48,0,0,1,1.54,8.9V492q0,8.3-4.15,13.46a23.64,23.64,0,0,1-10.69,7.52L360,540.66H346.32l-15.24-25.38a1.77,1.77,0,0,1-.72.1H318.9v25.28H307Zm24.66,35.61q7,0,10.64-3.38a11.6,11.6,0,0,0,3.68-9v-.21q0-6.14-3.68-9.21t-10.44-3.07h-13v24.87Z" transform="translate(-9.05 -5.29)"></path><path class="cls-7" d="M391,541.79a24.18,24.18,0,0,1-9.72-1.95,23.83,23.83,0,0,1-7.92-5.52,25.25,25.25,0,0,1-5.31-8.7,32.41,32.41,0,0,1-1.91-11.46v-.82a34.77,34.77,0,0,1,1.74-11.26,27.32,27.32,0,0,1,4.81-8.8A22.15,22.15,0,0,1,380,487.5a20.6,20.6,0,0,1,9.26-2.1,21,21,0,0,1,9.72,2.15,20.18,20.18,0,0,1,7.07,6,26.81,26.81,0,0,1,4.29,9A42.62,42.62,0,0,1,411.82,514v1.64c0,.75,0,1.53-.11,2.35H377.84q.82,6.81,4.61,10.36a12.83,12.83,0,0,0,9.1,3.56,14.63,14.63,0,0,0,6.86-1.54,22.88,22.88,0,0,0,5.63-4.19l6,7.18a28.71,28.71,0,0,1-8.29,6.2A23.94,23.94,0,0,1,391,541.79ZM400.56,510a22,22,0,0,0-3.31-10.64,9,9,0,0,0-7.9-4.2,9.65,9.65,0,0,0-7.89,3.94c-2.07,2.63-3.32,6.26-3.72,10.9Z" transform="translate(-9.05 -5.29)"></path><path class="cls-7" d="M422.87,466.78h11.56v73.88H422.87Z" transform="translate(-9.05 -5.29)"></path><path class="cls-7" d="M448.34,467.19h12.28v11.35H448.34Zm.42,19.23h11.56v54.24H448.76Z" transform="translate(-9.05 -5.29)"></path><path class="cls-7" d="M487.54,541.68a18.18,18.18,0,0,1-6.4-1.12,15.67,15.67,0,0,1-5.27-3.23,15.24,15.24,0,0,1-3.58-5.16,17.57,17.57,0,0,1-1.33-7.06v-.52q0-8.69,5.32-13t13.92-4.35a33.25,33.25,0,0,1,6.8.61,49.92,49.92,0,0,1,5.68,1.54v-2.26q0-5.52-3.07-8.28c-2-1.85-4.91-2.77-8.59-2.77a24,24,0,0,0-7.17,1,48.5,48.5,0,0,0-5.93,2.25l-3.28-9.21a44.71,44.71,0,0,1,8.14-3.12,36.47,36.47,0,0,1,9.77-1.18q10.63,0,16,5.53T513.94,507v33.67H502.58V534a17.06,17.06,0,0,1-15,7.67ZM491,533a13.62,13.62,0,0,0,4.6-.77,11.59,11.59,0,0,0,3.74-2.15,10.07,10.07,0,0,0,2.5-3.33,9.8,9.8,0,0,0,.92-4.29V517a31,31,0,0,0-4.55-1.38,25.32,25.32,0,0,0-5.47-.56q-5,0-7.78,2.4a8.43,8.43,0,0,0-2.76,6.7v.21a7.91,7.91,0,0,0,2.5,6.29A9.61,9.61,0,0,0,491,533Z" transform="translate(-9.05 -5.29)"></path><path class="cls-7" d="M553.8,541.68a17.62,17.62,0,0,1-5.36-.76,17.13,17.13,0,0,1-4.28-2,20,20,0,0,1-3.42-2.92,26.11,26.11,0,0,1-2.75-3.48v8.19H526.42V466.78H538l0,28.34a28.91,28.91,0,0,1,2.81-3.73,19.25,19.25,0,0,1,3.47-3.12,15.69,15.69,0,0,1,4.24-2.1,17.05,17.05,0,0,1,5.31-.77,19,19,0,0,1,7.86,1.69,18.69,18.69,0,0,1,6.69,5.12,26.47,26.47,0,0,1,4.7,8.59,36.88,36.88,0,0,1,1.79,12v1.43a37.2,37.2,0,0,1-1.74,12,26,26,0,0,1-4.64,8.55,19.29,19.29,0,0,1-6.74,5.16A18.92,18.92,0,0,1,553.8,541.68Zm-3.13-10.23a11,11,0,0,0,9-4.6q3.63-4.62,3.63-12.8v-.92a25.23,25.23,0,0,0-1-7.31,16.82,16.82,0,0,0-2.71-5.48,12.66,12.66,0,0,0-4-3.48,10.21,10.21,0,0,0-4.87-1.23,10.39,10.39,0,0,0-5,1.23,13.15,13.15,0,0,0-4.09,3.48,17.17,17.17,0,0,0-2.82,5.48,23.78,23.78,0,0,0-1,7.21v1a23.9,23.9,0,0,0,1,7.22,17.12,17.12,0,0,0,2.82,5.47,13.15,13.15,0,0,0,4.09,3.48A10.39,10.39,0,0,0,550.67,531.45Z" transform="translate(-9.05 -5.29)"></path><path class="cls-7" d="M586.39,466.78H598v73.88H586.39Z" transform="translate(-9.05 -5.29)"></path><path class="cls-7" d="M634.07,541.79a24.18,24.18,0,0,1-9.72-1.95,23.83,23.83,0,0,1-7.92-5.52,25.42,25.42,0,0,1-5.32-8.7,32.64,32.64,0,0,1-1.9-11.46v-.82A34.77,34.77,0,0,1,611,502.08a27.32,27.32,0,0,1,4.81-8.8,22.15,22.15,0,0,1,7.31-5.78,20.6,20.6,0,0,1,9.26-2.1,21,21,0,0,1,9.72,2.15,20.06,20.06,0,0,1,7.06,6,26.64,26.64,0,0,1,4.3,9A42.63,42.63,0,0,1,654.84,514v1.64c0,.75,0,1.53-.1,2.35H620.87q.82,6.81,4.61,10.36a12.83,12.83,0,0,0,9.1,3.56,14.63,14.63,0,0,0,6.86-1.54,22.88,22.88,0,0,0,5.63-4.19l6,7.18a28.71,28.71,0,0,1-8.29,6.2A23.94,23.94,0,0,1,634.07,541.79ZM643.59,510a22,22,0,0,0-3.31-10.64,9,9,0,0,0-7.9-4.2,9.65,9.65,0,0,0-7.89,3.94q-3.11,3.94-3.72,10.9Z" transform="translate(-9.05 -5.29)"></path><path class="cls-7" d="M692.91,469H718.8a32.51,32.51,0,0,1,11,1.74,21.71,21.71,0,0,1,8.14,5,19.68,19.68,0,0,1,4.4,6.86,24.7,24.7,0,0,1,1.53,8.9V492q0,8.3-4.14,13.46a23.73,23.73,0,0,1-10.7,7.52l16.89,27.73H732.21L717,515.28a1.77,1.77,0,0,1-.72.1H704.78v25.28H692.91Zm24.66,35.61q7,0,10.64-3.38a11.61,11.61,0,0,0,3.69-9v-.21q0-6.14-3.69-9.21t-10.43-3.07h-13v24.87Z" transform="translate(-9.05 -5.29)"></path><path class="cls-7" d="M776.93,541.79a24.19,24.19,0,0,1-9.73-1.95,23.83,23.83,0,0,1-7.92-5.52,25.25,25.25,0,0,1-5.31-8.7,32.41,32.41,0,0,1-1.91-11.46v-.82a34.77,34.77,0,0,1,1.74-11.26,27.32,27.32,0,0,1,4.81-8.8,22.15,22.15,0,0,1,7.31-5.78,20.6,20.6,0,0,1,9.26-2.1,21.1,21.1,0,0,1,9.73,2.15,20.24,20.24,0,0,1,7.06,6,26.62,26.62,0,0,1,4.29,9A42.62,42.62,0,0,1,797.7,514v1.64c0,.75,0,1.53-.11,2.35H763.72q.82,6.81,4.61,10.36a12.83,12.83,0,0,0,9.1,3.56,14.63,14.63,0,0,0,6.86-1.54,22.88,22.88,0,0,0,5.63-4.19l6,7.18a28.71,28.71,0,0,1-8.29,6.2A23.92,23.92,0,0,1,776.93,541.79ZM786.44,510a22,22,0,0,0-3.31-10.64,9,9,0,0,0-7.9-4.2,9.65,9.65,0,0,0-7.89,3.94q-3.11,3.94-3.72,10.9Z" transform="translate(-9.05 -5.29)"></path><path class="cls-7" d="M823.79,541.68a30.74,30.74,0,0,1-10.18-1.84,32.49,32.49,0,0,1-10-5.73l5.42-8.29a33.82,33.82,0,0,0,7.53,4.66,18.44,18.44,0,0,0,7.42,1.69,8.4,8.4,0,0,0,5.57-1.69,5.34,5.34,0,0,0,2-4.25v-.1a5.23,5.23,0,0,0-2.92-4.61,64.58,64.58,0,0,0-7.73-3.78q-3.06-1.34-5.73-2.77a23.63,23.63,0,0,1-4.7-3.27,13.86,13.86,0,0,1-3.23-4.25,13.09,13.09,0,0,1-1.17-5.78v-.2a15.22,15.22,0,0,1,1.38-6.6,14.63,14.63,0,0,1,3.79-5,17.39,17.39,0,0,1,5.67-3.17,21.65,21.65,0,0,1,7.07-1.12,28.52,28.52,0,0,1,9.15,1.53,32.16,32.16,0,0,1,8.44,4.3l-4.91,8.49a38.26,38.26,0,0,0-6.34-3.43,16.75,16.75,0,0,0-6.55-1.38,7.5,7.5,0,0,0-5.06,1.54,4.77,4.77,0,0,0-1.8,3.78v.21c0,1.77,1,3.24,2.92,4.4a78.05,78.05,0,0,0,7.73,3.89c2.11.95,4.06,1.93,5.83,2.91a23.24,23.24,0,0,1,4.66,3.38,14.18,14.18,0,0,1,3.12,4.3,13,13,0,0,1,1.12,5.58v.1a16.46,16.46,0,0,1-1.43,7.06,14.87,14.87,0,0,1-3.94,5.17,17.35,17.35,0,0,1-5.88,3.17A24.06,24.06,0,0,1,823.79,541.68Z" transform="translate(-9.05 -5.29)"></path><path class="cls-7" d="M868.71,541.68q-8,0-12.33-5.06T852,522.75V486.42H863.6v33.06q0,5.73,2.5,8.75a8.76,8.76,0,0,0,7.12,3,9.43,9.43,0,0,0,7.42-3.18q2.8-3.17,2.81-8.8V486.42H895v54.24H883.45v-7.88a22.67,22.67,0,0,1-2.56,3.43,18,18,0,0,1-3.22,2.81,15.74,15.74,0,0,1-4,2A16.25,16.25,0,0,1,868.71,541.68Z" transform="translate(-9.05 -5.29)"></path><path class="cls-7" d="M908.83,466.78h11.56v73.88H908.83Z" transform="translate(-9.05 -5.29)"></path><path class="cls-7" d="M950.37,541.48a20.25,20.25,0,0,1-5.52-.72,11.69,11.69,0,0,1-4.46-2.3,10.51,10.51,0,0,1-3-4.25,17.76,17.76,0,0,1-1.08-6.65V496.35h-5.93v-9.93h5.93V471.79h11.57v14.63h12.17v9.93H947.92v28.86q0,3.16,1.53,4.55a6.21,6.21,0,0,0,4.3,1.38,13.45,13.45,0,0,0,6.24-1.53v9.52a18.72,18.72,0,0,1-4.35,1.73A20.44,20.44,0,0,1,950.37,541.48Z" transform="translate(-9.05 -5.29)"></path><path class="cls-7" d="M986.18,541.68A30.74,30.74,0,0,1,976,539.84a32.45,32.45,0,0,1-10-5.73l5.42-8.29a33.54,33.54,0,0,0,7.52,4.66,18.48,18.48,0,0,0,7.42,1.69,8.41,8.41,0,0,0,5.58-1.69,5.33,5.33,0,0,0,2-4.25v-.1a5.22,5.22,0,0,0-2.91-4.61,65.34,65.34,0,0,0-7.73-3.78q-3.08-1.34-5.73-2.77a23.7,23.7,0,0,1-4.71-3.27,13.83,13.83,0,0,1-3.22-4.25,13,13,0,0,1-1.18-5.78v-.2a15.22,15.22,0,0,1,1.38-6.6,14.89,14.89,0,0,1,3.79-5,17.44,17.44,0,0,1,5.68-3.17,21.55,21.55,0,0,1,7.06-1.12,28.62,28.62,0,0,1,9.16,1.53,32.32,32.32,0,0,1,8.44,4.3l-4.91,8.49a38.35,38.35,0,0,0-6.35-3.43,16.72,16.72,0,0,0-6.55-1.38,7.5,7.5,0,0,0-5.06,1.54,4.79,4.79,0,0,0-1.79,3.78v.21q0,2.66,2.92,4.4a76.63,76.63,0,0,0,7.72,3.89c2.11.95,4.06,1.93,5.84,2.91a23.16,23.16,0,0,1,4.65,3.38,14.18,14.18,0,0,1,3.12,4.3,13,13,0,0,1,1.13,5.58v.1a16.46,16.46,0,0,1-1.44,7.06,14.72,14.72,0,0,1-3.93,5.17,17.49,17.49,0,0,1-5.89,3.17A24,24,0,0,1,986.18,541.68Z" transform="translate(-9.05 -5.29)"></path><path class="cls-7" d="M1063.34,541.58a38.35,38.35,0,0,1-13.51-2.45,37.82,37.82,0,0,1-12.38-7.88l7.16-8.91a44.07,44.07,0,0,0,8.55,6,21.26,21.26,0,0,0,10.28,2.46c3.48,0,6.23-.86,8.24-2.56a8.22,8.22,0,0,0,3-6.55v-.1a8.94,8.94,0,0,0-.56-3.13,7.84,7.84,0,0,0-2.05-2.86,19,19,0,0,0-4.14-2.76,57.77,57.77,0,0,0-7-2.92,84.1,84.1,0,0,1-9-3.94,27.79,27.79,0,0,1-6.44-4.5,16.81,16.81,0,0,1-3.94-5.68,19.21,19.21,0,0,1-1.33-7.47v-.21a19.11,19.11,0,0,1,1.69-8.08,18.65,18.65,0,0,1,4.7-6.34,21.68,21.68,0,0,1,7.17-4.15,27,27,0,0,1,9.16-1.48,35.05,35.05,0,0,1,11.92,2,33.2,33.2,0,0,1,10.59,6.35l-6.76,9.11a37.76,37.76,0,0,0-7.72-4.86,19.38,19.38,0,0,0-8.34-1.9q-4.92,0-7.68,2.36a7.46,7.46,0,0,0-2.76,5.93v.1a9.2,9.2,0,0,0,.61,3.38,7.63,7.63,0,0,0,2.25,2.92,24.83,24.83,0,0,0,4.51,2.86,71.81,71.81,0,0,0,7.47,3.23,66.48,66.48,0,0,1,8.65,4,25.74,25.74,0,0,1,6,4.55,16.38,16.38,0,0,1,3.58,5.58,19.17,19.17,0,0,1,1.18,7v.2a20.4,20.4,0,0,1-1.74,8.54A18.37,18.37,0,0,1,1080,536a22.76,22.76,0,0,1-7.37,4.15A27.88,27.88,0,0,1,1063.34,541.58Z" transform="translate(-9.05 -5.29)"></path><path class="cls-7" d="M1111.33,541.68a18.13,18.13,0,0,1-6.39-1.12,15.67,15.67,0,0,1-5.27-3.23,15.1,15.1,0,0,1-3.58-5.16,17.57,17.57,0,0,1-1.33-7.06v-.52q0-8.69,5.32-13T1114,507.2a33.28,33.28,0,0,1,6.81.61,50.49,50.49,0,0,1,5.68,1.54v-2.26q0-5.52-3.07-8.28c-2.05-1.85-4.91-2.77-8.6-2.77a24,24,0,0,0-7.16,1,49.31,49.31,0,0,0-5.94,2.25l-3.27-9.21a44.16,44.16,0,0,1,8.14-3.12,36.42,36.42,0,0,1,9.77-1.18q10.64,0,16,5.53t5.43,15.65v33.67h-11.36V534a17.06,17.06,0,0,1-15.05,7.67Zm3.48-8.69a13.64,13.64,0,0,0,4.61-.77,11.54,11.54,0,0,0,3.73-2.15,9.92,9.92,0,0,0,3.43-7.62V517a31,31,0,0,0-4.55-1.38,25.42,25.42,0,0,0-5.48-.56q-5,0-7.78,2.4a8.43,8.43,0,0,0-2.76,6.7v.21a7.91,7.91,0,0,0,2.51,6.29A9.6,9.6,0,0,0,1114.81,533Z" transform="translate(-9.05 -5.29)"></path><path class="cls-7" d="M1144.18,486.42h12.18l12.18,39.5,12.28-39.5h12l-18.93,54.65h-10.75Z" transform="translate(-9.05 -5.29)"></path><path class="cls-7" d="M1221.24,541.79a24.26,24.26,0,0,1-9.73-1.95,23.89,23.89,0,0,1-7.91-5.52,25.27,25.27,0,0,1-5.32-8.7,32.64,32.64,0,0,1-1.91-11.46v-.82a34.77,34.77,0,0,1,1.74-11.26,27.32,27.32,0,0,1,4.81-8.8,22.29,22.29,0,0,1,7.32-5.78,20.6,20.6,0,0,1,9.26-2.1,21.09,21.09,0,0,1,9.72,2.15,20.15,20.15,0,0,1,7.06,6,26.83,26.83,0,0,1,4.3,9A43,43,0,0,1,1242,514v1.64c0,.75,0,1.53-.1,2.35H1208q.81,6.81,4.6,10.36a12.85,12.85,0,0,0,9.11,3.56,14.66,14.66,0,0,0,6.86-1.54,22.65,22.65,0,0,0,5.62-4.19l6,7.18a28.58,28.58,0,0,1-8.29,6.2A23.92,23.92,0,0,1,1221.24,541.79Zm9.52-31.83a22,22,0,0,0-3.32-10.64,8.94,8.94,0,0,0-7.89-4.2,9.68,9.68,0,0,0-7.9,3.94q-3.11,3.94-3.72,10.9Z" transform="translate(-9.05 -5.29)"></path><path class="cls-7" d="M1280.08,469H1292v60.68h30.7v10.95h-42.57Z" transform="translate(-9.05 -5.29)"></path><path class="cls-7" d="M1332.47,467.19h12.28v11.35h-12.28Zm.41,19.23h11.56v54.24h-11.56Z" transform="translate(-9.05 -5.29)"></path><path class="cls-7" d="M1354,486.42h12.17l12.18,39.5,12.28-39.5h12l-18.93,54.65h-10.74Z" transform="translate(-9.05 -5.29)"></path><path class="cls-7" d="M1431,541.79a24.26,24.26,0,0,1-9.73-1.95,23.89,23.89,0,0,1-7.91-5.52,25.42,25.42,0,0,1-5.32-8.7,32.64,32.64,0,0,1-1.91-11.46v-.82a34.77,34.77,0,0,1,1.74-11.26,27.51,27.51,0,0,1,4.81-8.8,22.29,22.29,0,0,1,7.32-5.78,20.6,20.6,0,0,1,9.26-2.1,21.06,21.06,0,0,1,9.72,2.15,20.15,20.15,0,0,1,7.06,6,26.64,26.64,0,0,1,4.3,9,42.63,42.63,0,0,1,1.43,11.36v1.64c0,.75,0,1.53-.1,2.35h-33.87q.82,6.81,4.6,10.36a12.85,12.85,0,0,0,9.11,3.56,14.66,14.66,0,0,0,6.86-1.54,22.88,22.88,0,0,0,5.63-4.19l6,7.18a28.71,28.71,0,0,1-8.29,6.2A24,24,0,0,1,1431,541.79Zm9.52-31.83a22.08,22.08,0,0,0-3.31-10.64,9,9,0,0,0-7.9-4.2,9.65,9.65,0,0,0-7.89,3.94q-3.12,3.94-3.72,10.9Z" transform="translate(-9.05 -5.29)"></path><path class="cls-7" d="M1477.88,541.68a30.69,30.69,0,0,1-10.18-1.84,32.38,32.38,0,0,1-10-5.73l5.42-8.29a34,34,0,0,0,7.52,4.66,18.48,18.48,0,0,0,7.42,1.69,8.41,8.41,0,0,0,5.58-1.69,5.34,5.34,0,0,0,2-4.25v-.1a5.23,5.23,0,0,0-2.92-4.61,65.34,65.34,0,0,0-7.73-3.78q-3.06-1.34-5.73-2.77a24,24,0,0,1-4.71-3.27,13.83,13.83,0,0,1-3.22-4.25,13.09,13.09,0,0,1-1.17-5.78v-.2a15.08,15.08,0,0,1,1.38-6.6,14.73,14.73,0,0,1,3.78-5,17.44,17.44,0,0,1,5.68-3.17,21.59,21.59,0,0,1,7.06-1.12,28.62,28.62,0,0,1,9.16,1.53,32.16,32.16,0,0,1,8.44,4.3l-4.91,8.49a38.67,38.67,0,0,0-6.34-3.43,16.79,16.79,0,0,0-6.55-1.38,7.53,7.53,0,0,0-5.07,1.54,4.79,4.79,0,0,0-1.79,3.78v.21q0,2.66,2.92,4.4a77.73,77.73,0,0,0,7.72,3.89c2.12.95,4.06,1.93,5.84,2.91a23.16,23.16,0,0,1,4.65,3.38,14.18,14.18,0,0,1,3.12,4.3,13,13,0,0,1,1.13,5.58v.1a16.61,16.61,0,0,1-1.43,7.06,14.87,14.87,0,0,1-3.94,5.17,17.49,17.49,0,0,1-5.89,3.17A24,24,0,0,1,1477.88,541.68Z" transform="translate(-9.05 -5.29)"></path></svg>